<mxfile host="app.diagrams.net" modified="2021-01-24T15:02:03.455Z" agent="5.0 (X11; Linux x86_64) AppleWebKit/537.36 (KHTML, like Gecko) Chrome/86.0.4240.111 Safari/537.36" etag="OrRwupQq-fdW6z7jggvw" version="14.2.7" type="github">
  <diagram id="yKuNKINZtJuDBa508YRG" name="第 1 页">
    <mxGraphModel dx="1108" dy="768" grid="1" gridSize="10" guides="1" tooltips="1" connect="1" arrows="1" fold="1" page="1" pageScale="1" pageWidth="827" pageHeight="1169" math="0" shadow="0">
      <root>
        <mxCell id="0" />
        <mxCell id="1" parent="0" />
        <mxCell id="I_MxyI3Fttu0BFqBbHvd-6" style="rounded=0;orthogonalLoop=1;jettySize=auto;html=1;exitX=0.5;exitY=1;exitDx=0;exitDy=0;entryX=0.5;entryY=0;entryDx=0;entryDy=0;" parent="1" source="I_MxyI3Fttu0BFqBbHvd-2" target="I_MxyI3Fttu0BFqBbHvd-4" edge="1">
          <mxGeometry relative="1" as="geometry">
            <mxPoint x="360" y="80" as="targetPoint" />
          </mxGeometry>
        </mxCell>
        <mxCell id="I_MxyI3Fttu0BFqBbHvd-8" style="edgeStyle=orthogonalEdgeStyle;rounded=0;orthogonalLoop=1;jettySize=auto;html=1;exitX=1;exitY=0.5;exitDx=0;exitDy=0;entryX=1;entryY=0.5;entryDx=0;entryDy=0;" parent="1" source="I_MxyI3Fttu0BFqBbHvd-2" edge="1" target="I_MxyI3Fttu0BFqBbHvd-19">
          <mxGeometry relative="1" as="geometry">
            <mxPoint x="394" y="315" as="targetPoint" />
            <Array as="points">
              <mxPoint x="450" y="45" />
              <mxPoint x="450" y="325" />
            </Array>
          </mxGeometry>
        </mxCell>
        <mxCell id="I_MxyI3Fttu0BFqBbHvd-2" value="&lt;font style=&quot;font-size: 16px&quot;&gt;01&lt;/font&gt;" style="ellipse;whiteSpace=wrap;html=1;aspect=fixed;" parent="1" vertex="1">
          <mxGeometry x="344" y="20" width="50" height="50" as="geometry" />
        </mxCell>
        <mxCell id="I_MxyI3Fttu0BFqBbHvd-5" style="edgeStyle=orthogonalEdgeStyle;rounded=0;orthogonalLoop=1;jettySize=auto;html=1;exitX=0;exitY=0.5;exitDx=0;exitDy=0;entryX=0;entryY=0.5;entryDx=0;entryDy=0;" parent="1" source="I_MxyI3Fttu0BFqBbHvd-11" target="I_MxyI3Fttu0BFqBbHvd-2" edge="1">
          <mxGeometry relative="1" as="geometry">
            <Array as="points">
              <mxPoint x="259" y="245" />
              <mxPoint x="259" y="45" />
            </Array>
          </mxGeometry>
        </mxCell>
        <mxCell id="I_MxyI3Fttu0BFqBbHvd-12" style="rounded=0;orthogonalLoop=1;jettySize=auto;html=1;exitX=0;exitY=1;exitDx=0;exitDy=0;entryX=1;entryY=0;entryDx=0;entryDy=0;" parent="1" source="I_MxyI3Fttu0BFqBbHvd-4" target="I_MxyI3Fttu0BFqBbHvd-17" edge="1">
          <mxGeometry relative="1" as="geometry">
            <mxPoint x="352.32233047033856" y="142.6776695296614" as="sourcePoint" />
            <mxPoint x="335.67766952966144" y="177.3223304703386" as="targetPoint" />
          </mxGeometry>
        </mxCell>
        <mxCell id="yFhQbwj5ZlOTtDGb6wVG-5" style="edgeStyle=none;rounded=0;orthogonalLoop=1;jettySize=auto;html=1;exitX=1;exitY=1;exitDx=0;exitDy=0;entryX=1;entryY=0;entryDx=0;entryDy=0;" parent="1" source="I_MxyI3Fttu0BFqBbHvd-4" target="I_MxyI3Fttu0BFqBbHvd-11" edge="1">
          <mxGeometry relative="1" as="geometry" />
        </mxCell>
        <mxCell id="I_MxyI3Fttu0BFqBbHvd-4" value="&lt;span style=&quot;font-size: 16px&quot;&gt;02&lt;/span&gt;" style="ellipse;whiteSpace=wrap;html=1;aspect=fixed;" parent="1" vertex="1">
          <mxGeometry x="344" y="90.00000000000011" width="50" height="50" as="geometry" />
        </mxCell>
        <mxCell id="I_MxyI3Fttu0BFqBbHvd-11" value="" style="ellipse;whiteSpace=wrap;html=1;aspect=fixed;" parent="1" vertex="1">
          <mxGeometry x="344" y="220.0000000000001" width="50" height="50" as="geometry" />
        </mxCell>
        <mxCell id="I_MxyI3Fttu0BFqBbHvd-17" value="&lt;font style=&quot;font-size: 16px&quot;&gt;03&lt;/font&gt;" style="ellipse;whiteSpace=wrap;html=1;aspect=fixed;" parent="1" vertex="1">
          <mxGeometry x="300" y="150.0000000000001" width="50" height="50" as="geometry" />
        </mxCell>
        <mxCell id="I_MxyI3Fttu0BFqBbHvd-78" style="edgeStyle=orthogonalEdgeStyle;rounded=0;orthogonalLoop=1;jettySize=auto;html=1;exitX=0.5;exitY=1;exitDx=0;exitDy=0;entryX=0.5;entryY=0;entryDx=0;entryDy=0;" parent="1" source="I_MxyI3Fttu0BFqBbHvd-19" target="I_MxyI3Fttu0BFqBbHvd-23" edge="1">
          <mxGeometry relative="1" as="geometry" />
        </mxCell>
        <mxCell id="I_MxyI3Fttu0BFqBbHvd-19" value="&lt;font style=&quot;font-size: 16px&quot;&gt;04&lt;/font&gt;" style="ellipse;whiteSpace=wrap;html=1;aspect=fixed;" parent="1" vertex="1">
          <mxGeometry x="344" y="300.0000000000001" width="50" height="50" as="geometry" />
        </mxCell>
        <mxCell id="I_MxyI3Fttu0BFqBbHvd-21" style="edgeStyle=orthogonalEdgeStyle;curved=1;rounded=0;orthogonalLoop=1;jettySize=auto;html=1;exitX=0.5;exitY=1;exitDx=0;exitDy=0;" parent="1" source="I_MxyI3Fttu0BFqBbHvd-23" edge="1">
          <mxGeometry relative="1" as="geometry">
            <mxPoint x="368.3529411764707" y="449.9999999999999" as="targetPoint" />
          </mxGeometry>
        </mxCell>
        <mxCell id="I_MxyI3Fttu0BFqBbHvd-74" style="edgeStyle=orthogonalEdgeStyle;rounded=0;orthogonalLoop=1;jettySize=auto;html=1;exitX=1;exitY=0.5;exitDx=0;exitDy=0;entryX=1;entryY=0.5;entryDx=0;entryDy=0;" parent="1" source="I_MxyI3Fttu0BFqBbHvd-23" target="I_MxyI3Fttu0BFqBbHvd-76" edge="1">
          <mxGeometry relative="1" as="geometry">
            <Array as="points">
              <mxPoint x="600" y="395" />
              <mxPoint x="600" y="1075" />
            </Array>
            <mxPoint x="420" y="1215" as="targetPoint" />
          </mxGeometry>
        </mxCell>
        <mxCell id="I_MxyI3Fttu0BFqBbHvd-23" value="&lt;font style=&quot;font-size: 16px&quot;&gt;05&lt;/font&gt;" style="ellipse;whiteSpace=wrap;html=1;aspect=fixed;" parent="1" vertex="1">
          <mxGeometry x="344" y="370" width="50" height="50" as="geometry" />
        </mxCell>
        <mxCell id="I_MxyI3Fttu0BFqBbHvd-47" style="edgeStyle=none;rounded=0;orthogonalLoop=1;jettySize=auto;html=1;exitX=0.5;exitY=1;exitDx=0;exitDy=0;entryX=0.5;entryY=0;entryDx=0;entryDy=0;" parent="1" source="I_MxyI3Fttu0BFqBbHvd-27" target="I_MxyI3Fttu0BFqBbHvd-42" edge="1">
          <mxGeometry relative="1" as="geometry" />
        </mxCell>
        <mxCell id="I_MxyI3Fttu0BFqBbHvd-68" style="edgeStyle=orthogonalEdgeStyle;rounded=0;orthogonalLoop=1;jettySize=auto;html=1;exitX=1;exitY=0.5;exitDx=0;exitDy=0;entryX=1.001;entryY=0.428;entryDx=0;entryDy=0;entryPerimeter=0;" parent="1" source="I_MxyI3Fttu0BFqBbHvd-27" target="I_MxyI3Fttu0BFqBbHvd-69" edge="1">
          <mxGeometry relative="1" as="geometry">
            <Array as="points">
              <mxPoint x="570" y="475" />
              <mxPoint x="570" y="1011" />
              <mxPoint x="411" y="1011" />
            </Array>
            <mxPoint x="420" y="1075" as="targetPoint" />
          </mxGeometry>
        </mxCell>
        <mxCell id="I_MxyI3Fttu0BFqBbHvd-27" value="&lt;span style=&quot;font-size: 16px&quot;&gt;06&lt;/span&gt;" style="ellipse;whiteSpace=wrap;html=1;aspect=fixed;" parent="1" vertex="1">
          <mxGeometry x="344" y="450.0000000000001" width="50" height="50" as="geometry" />
        </mxCell>
        <mxCell id="I_MxyI3Fttu0BFqBbHvd-40" style="rounded=0;orthogonalLoop=1;jettySize=auto;html=1;exitX=0;exitY=1;exitDx=0;exitDy=0;entryX=1;entryY=0;entryDx=0;entryDy=0;" parent="1" target="I_MxyI3Fttu0BFqBbHvd-46" edge="1">
          <mxGeometry relative="1" as="geometry">
            <mxPoint x="352.32233047033856" y="562.6776695296614" as="sourcePoint" />
            <mxPoint x="335.67766952966144" y="597.3223304703386" as="targetPoint" />
          </mxGeometry>
        </mxCell>
        <mxCell id="I_MxyI3Fttu0BFqBbHvd-41" style="edgeStyle=none;rounded=0;orthogonalLoop=1;jettySize=auto;html=1;exitX=1;exitY=1;exitDx=0;exitDy=0;entryX=0;entryY=0;entryDx=0;entryDy=0;" parent="1" target="I_MxyI3Fttu0BFqBbHvd-45" edge="1">
          <mxGeometry relative="1" as="geometry">
            <mxPoint x="387.67766952966144" y="562.6776695296614" as="sourcePoint" />
            <mxPoint x="397.322330470334" y="597.3223304703341" as="targetPoint" />
          </mxGeometry>
        </mxCell>
        <mxCell id="I_MxyI3Fttu0BFqBbHvd-42" value="&lt;span style=&quot;font-size: 16px&quot;&gt;07&lt;/span&gt;" style="ellipse;whiteSpace=wrap;html=1;aspect=fixed;" parent="1" vertex="1">
          <mxGeometry x="344" y="520.0000000000001" width="50" height="50" as="geometry" />
        </mxCell>
        <mxCell id="I_MxyI3Fttu0BFqBbHvd-53" style="edgeStyle=none;rounded=0;orthogonalLoop=1;jettySize=auto;html=1;exitX=0.5;exitY=1;exitDx=0;exitDy=0;entryX=0.5;entryY=0;entryDx=0;entryDy=0;" parent="1" source="I_MxyI3Fttu0BFqBbHvd-45" target="I_MxyI3Fttu0BFqBbHvd-48" edge="1">
          <mxGeometry relative="1" as="geometry" />
        </mxCell>
        <mxCell id="I_MxyI3Fttu0BFqBbHvd-59" style="edgeStyle=orthogonalEdgeStyle;rounded=0;orthogonalLoop=1;jettySize=auto;html=1;exitX=1;exitY=0.5;exitDx=0;exitDy=0;entryX=1;entryY=0.5;entryDx=0;entryDy=0;" parent="1" source="I_MxyI3Fttu0BFqBbHvd-45" target="I_MxyI3Fttu0BFqBbHvd-58" edge="1">
          <mxGeometry relative="1" as="geometry">
            <Array as="points">
              <mxPoint x="520" y="615" />
              <mxPoint x="520" y="885" />
            </Array>
          </mxGeometry>
        </mxCell>
        <mxCell id="I_MxyI3Fttu0BFqBbHvd-45" value="&lt;font style=&quot;font-size: 16px&quot;&gt;08&lt;br&gt;&lt;/font&gt;" style="ellipse;whiteSpace=wrap;html=1;aspect=fixed;" parent="1" vertex="1">
          <mxGeometry x="411" y="590.0000000000001" width="50" height="50" as="geometry" />
        </mxCell>
        <mxCell id="I_MxyI3Fttu0BFqBbHvd-62" style="edgeStyle=none;rounded=0;orthogonalLoop=1;jettySize=auto;html=1;exitX=1;exitY=1;exitDx=0;exitDy=0;entryX=0;entryY=0;entryDx=0;entryDy=0;" parent="1" source="I_MxyI3Fttu0BFqBbHvd-46" target="I_MxyI3Fttu0BFqBbHvd-63" edge="1">
          <mxGeometry relative="1" as="geometry">
            <mxPoint x="376.3223304703331" y="917.3223304703331" as="targetPoint" />
          </mxGeometry>
        </mxCell>
        <mxCell id="I_MxyI3Fttu0BFqBbHvd-46" value="" style="ellipse;whiteSpace=wrap;html=1;aspect=fixed;" parent="1" vertex="1">
          <mxGeometry x="270" y="720.0000000000001" width="50" height="50" as="geometry" />
        </mxCell>
        <mxCell id="I_MxyI3Fttu0BFqBbHvd-52" style="edgeStyle=none;rounded=0;orthogonalLoop=1;jettySize=auto;html=1;exitX=1;exitY=1;exitDx=0;exitDy=0;entryX=0;entryY=0;entryDx=0;entryDy=0;" parent="1" source="I_MxyI3Fttu0BFqBbHvd-48" target="I_MxyI3Fttu0BFqBbHvd-49" edge="1">
          <mxGeometry relative="1" as="geometry" />
        </mxCell>
        <mxCell id="I_MxyI3Fttu0BFqBbHvd-79" style="edgeStyle=none;rounded=0;orthogonalLoop=1;jettySize=auto;html=1;exitX=0;exitY=1;exitDx=0;exitDy=0;entryX=0;entryY=0;entryDx=0;entryDy=0;" parent="1" source="I_MxyI3Fttu0BFqBbHvd-48" target="I_MxyI3Fttu0BFqBbHvd-54" edge="1">
          <mxGeometry relative="1" as="geometry" />
        </mxCell>
        <mxCell id="I_MxyI3Fttu0BFqBbHvd-48" value="&lt;font style=&quot;font-size: 16px&quot;&gt;09&lt;/font&gt;" style="ellipse;whiteSpace=wrap;html=1;aspect=fixed;" parent="1" vertex="1">
          <mxGeometry x="411" y="670.0000000000001" width="50" height="50" as="geometry" />
        </mxCell>
        <mxCell id="I_MxyI3Fttu0BFqBbHvd-56" style="edgeStyle=none;rounded=0;orthogonalLoop=1;jettySize=auto;html=1;exitX=0;exitY=1;exitDx=0;exitDy=0;entryX=1;entryY=0;entryDx=0;entryDy=0;" parent="1" source="I_MxyI3Fttu0BFqBbHvd-49" target="I_MxyI3Fttu0BFqBbHvd-54" edge="1">
          <mxGeometry relative="1" as="geometry" />
        </mxCell>
        <mxCell id="I_MxyI3Fttu0BFqBbHvd-49" value="&lt;font style=&quot;font-size: 16px&quot;&gt;10&lt;br&gt;&lt;/font&gt;" style="ellipse;whiteSpace=wrap;html=1;aspect=fixed;" parent="1" vertex="1">
          <mxGeometry x="450" y="730.0000000000001" width="50" height="50" as="geometry" />
        </mxCell>
        <mxCell id="I_MxyI3Fttu0BFqBbHvd-57" style="edgeStyle=orthogonalEdgeStyle;rounded=0;orthogonalLoop=1;jettySize=auto;html=1;exitX=0;exitY=0.5;exitDx=0;exitDy=0;entryX=0;entryY=0.5;entryDx=0;entryDy=0;" parent="1" source="I_MxyI3Fttu0BFqBbHvd-54" target="I_MxyI3Fttu0BFqBbHvd-45" edge="1">
          <mxGeometry relative="1" as="geometry">
            <Array as="points">
              <mxPoint x="360" y="815" />
              <mxPoint x="360" y="615" />
            </Array>
          </mxGeometry>
        </mxCell>
        <mxCell id="I_MxyI3Fttu0BFqBbHvd-54" value="" style="ellipse;whiteSpace=wrap;html=1;aspect=fixed;" parent="1" vertex="1">
          <mxGeometry x="411" y="790.0000000000001" width="50" height="50" as="geometry" />
        </mxCell>
        <mxCell id="I_MxyI3Fttu0BFqBbHvd-61" style="rounded=0;orthogonalLoop=1;jettySize=auto;html=1;exitX=0;exitY=1;exitDx=0;exitDy=0;entryX=1;entryY=0;entryDx=0;entryDy=0;" parent="1" source="I_MxyI3Fttu0BFqBbHvd-58" target="I_MxyI3Fttu0BFqBbHvd-63" edge="1">
          <mxGeometry relative="1" as="geometry">
            <mxPoint x="411.6776695296671" y="917.3223304703326" as="targetPoint" />
          </mxGeometry>
        </mxCell>
        <mxCell id="I_MxyI3Fttu0BFqBbHvd-58" value="" style="ellipse;whiteSpace=wrap;html=1;aspect=fixed;" parent="1" vertex="1">
          <mxGeometry x="411" y="860" width="50" height="50" as="geometry" />
        </mxCell>
        <mxCell id="I_MxyI3Fttu0BFqBbHvd-65" style="edgeStyle=orthogonalEdgeStyle;rounded=0;orthogonalLoop=1;jettySize=auto;html=1;exitX=0;exitY=0.5;exitDx=0;exitDy=0;entryX=0;entryY=0.5;entryDx=0;entryDy=0;" parent="1" source="I_MxyI3Fttu0BFqBbHvd-63" target="I_MxyI3Fttu0BFqBbHvd-27" edge="1">
          <mxGeometry relative="1" as="geometry">
            <Array as="points">
              <mxPoint x="250" y="945" />
              <mxPoint x="250" y="475" />
            </Array>
          </mxGeometry>
        </mxCell>
        <mxCell id="I_MxyI3Fttu0BFqBbHvd-63" value="" style="ellipse;whiteSpace=wrap;html=1;aspect=fixed;" parent="1" vertex="1">
          <mxGeometry x="361" y="920" width="50" height="50" as="geometry" />
        </mxCell>
        <mxCell id="I_MxyI3Fttu0BFqBbHvd-71" style="edgeStyle=orthogonalEdgeStyle;rounded=0;orthogonalLoop=1;jettySize=auto;html=1;exitX=0;exitY=0.5;exitDx=0;exitDy=0;entryX=0;entryY=0.5;entryDx=0;entryDy=0;" parent="1" source="I_MxyI3Fttu0BFqBbHvd-69" target="I_MxyI3Fttu0BFqBbHvd-23" edge="1">
          <mxGeometry relative="1" as="geometry">
            <Array as="points">
              <mxPoint x="200" y="1015" />
              <mxPoint x="200" y="395" />
            </Array>
          </mxGeometry>
        </mxCell>
        <mxCell id="I_MxyI3Fttu0BFqBbHvd-69" value="" style="ellipse;whiteSpace=wrap;html=1;aspect=fixed;" parent="1" vertex="1">
          <mxGeometry x="361" y="990" width="50" height="50" as="geometry" />
        </mxCell>
        <mxCell id="I_MxyI3Fttu0BFqBbHvd-76" value="11" style="ellipse;whiteSpace=wrap;html=1;aspect=fixed;" parent="1" vertex="1">
          <mxGeometry x="361" y="1050" width="50" height="50" as="geometry" />
        </mxCell>
      </root>
    </mxGraphModel>
  </diagram>
</mxfile>
